:SAMPLES-PER-SECOND 30
:FULLY-SPECIFIED
:DEGREES
175
root  -30.7819 41.3634 38.2894 0.164623 -1.33928 -1.72407
RightUpLeg  -0.417625 -6.50525 -3.75184
RightLeg  2.85395 3.26939 2.97759
RightFoot  -0.00060622 0.157962 -1.58979
RightToes  -5.8209e-011 0 -3.6325e-017
Spine  -0.22501 0.0336309 2.92603
Spine1  4.03427 0.00548618 -0.272847
HEad  -9.69101 4.87632 -2.02716
LeftShoulder1  1.10728 -3.31148 -8.76116
LeftArm  -10.5263 7.36495 4.00691
LeftForeArm  12.2675 -1.52489 -4.44903
LeftHand  -0.244104 0.0205437 5.32207
RightShoulder  0.448425 0.163999 4.32617
RightArm  -15.6763 -0.2538 -0.743972
RightForeArm  -3.34257 2.32936 5.11124
RightHand  -0.837987 2.50953 -12.4889
LeftUpLeg  3.12956 4.60682 2.32944
LeftLeg  2.01842 5.82654 -3.44215
LeftFoot  -4.14719 -0.217304 3.85978
LeftToes  5.72949e-011 -2.03295e-011 6.54899e-012
176
root  -30.7826 41.3584 38.3268 0.320107 -1.40107 -1.68648
RightUpLeg  -0.599181 -6.49802 -3.76159
RightLeg  2.99153 3.32604 2.93901
RightFoot  -0.171422 0.146677 -1.51099
RightToes  -5.8209e-011 0 -3.6325e-017
Spine  -0.1976 0.018373 2.98759
Spine1  4.00363 0.0367107 -0.476819
HEad  -9.6124 5.24139 -1.60088
LeftShoulder1  1.04782 -3.20281 -8.06459
LeftArm  -10.4961 7.86415 3.82161
LeftForeArm  11.0747 -1.44224 -4.4159
LeftHand  -0.244104 0.0205437 5.32207
RightShoulder  0.447241 0.0678878 4.66005
RightArm  -15.967 -0.252419 -1.28091
RightForeArm  -3.41711 1.91888 4.97682
RightHand  -0.790607 2.14354 -12.3454
LeftUpLeg  3.01769 4.54728 2.26297
LeftLeg  2.04056 5.9693 -3.41607
LeftFoot  -4.24434 -0.21191 3.81167
LeftToes  5.72949e-011 -2.03295e-011 6.54899e-012
177
root  -30.7829 41.3536 38.3575 0.413698 -1.363 -1.69778
RightUpLeg  -0.664817 -6.48788 -3.74468
RightLeg  3.03473 3.28247 2.93471
RightFoot  -0.264479 0.140576 -1.46685
RightToes  -5.8209e-011 0 -3.6325e-017
Spine  -0.126127 -0.0165064 3.34709
Spine1  3.90502 0.13609 -1.12658
HEad  -9.28698 5.56231 -0.790037
LeftShoulder1  0.976843 -3.10252 -7.13304
LeftArm  -10.4803 8.14426 3.60953
LeftForeArm  10.454 -1.55922 -4.40781
LeftHand  -0.244104 0.0205437 5.32207
RightShoulder  0.459657 0.0225888 5.23834
RightArm  -16.3784 -0.328432 -1.99655
RightForeArm  -3.79018 1.34915 4.79941
RightHand  -0.800646 2.18096 -12.4391
LeftUpLeg  2.92391 4.52762 2.26366
LeftLeg  2.13138 5.98727 -3.38164
LeftFoot  -4.35475 -0.210174 3.78464
LeftToes  5.72949e-011 -2.03295e-011 6.54899e-012
178
root  -30.7858 41.3521 38.383 0.453573 -1.20791 -1.74113
RightUpLeg  -0.613583 -6.45698 -3.69857
RightLeg  2.98374 3.10004 2.93857
RightFoot  -0.309318 0.141072 -1.48599
RightToes  -5.8209e-011 0 -3.6325e-017
Spine  -0.025709 -0.048147 3.43615
Spine1  3.74446 0.0957086 -1.1154
HEad  -8.70538 5.49423 -0.622189
LeftShoulder1  0.980358 -3.12044 -7.14423
LeftArm  -10.3128 8.19735 3.97104
LeftForeArm  10.4608 -1.73443 -4.46965
LeftHand  -0.244104 0.0205437 5.32207
RightShoulder  0.440643 -0.0540796 4.93684
RightArm  -16.6266 -0.516103 -2.12821
RightForeArm  -3.91401 0.848764 4.65323
RightHand  -0.816312 2.31629 -12.465
LeftUpLeg  2.90421 4.56753 2.33758
LeftLeg  2.15898 5.80482 -3.38638
LeftFoot  -4.42001 -0.206201 3.72275
LeftToes  5.72949e-011 -2.03295e-011 6.54899e-012
179
root  -30.7916 41.3515 38.3986 0.48029 -1.04931 -1.7587
RightUpLeg  -0.569471 -6.42552 -3.6702
RightLeg  2.94872 2.92643 2.92957
RightFoot  -0.381135 0.13954 -1.50098
RightToes  -5.8209e-011 0 -3.6325e-017
Spine  0.0318369 -0.0450135 3.17007
Spine1  3.70775 -0.0590398 -0.384367
HEad  -8.11389 5.11764 -1.24252
LeftShoulder1  1.05626 -3.28205 -8.00237
LeftArm  -10.0481 8.23634 4.71801
LeftForeArm  10.7057 -1.97411 -4.56696
LeftHand  -0.244104 0.0205437 5.32207
RightShoulder  0.372989 -0.318922 3.73264
RightArm  -16.587 -0.696214 -1.52975
RightForeArm  -3.71455 0.777471 4.63042
RightHand  -0.803907 2.2858 -12.326
LeftUpLeg  2.93069 4.63348 2.41158
LeftLeg  2.08643 5.5598 -3.44527
LeftFoot  -4.42993 -0.200799 3.63862
LeftToes  5.72949e-011 -2.03295e-011 6.54899e-012
180
root  -30.801 41.3511 38.4022 0.515147 -0.965918 -1.73443
RightUpLeg  -0.601579 -6.42302 -3.68282
RightLeg  2.98597 2.86247 2.92378
RightFoot  -0.480106 0.132969 -1.44721
RightToes  -5.8209e-011 0 -3.6325e-017
Spine  0.0308931 -0.0312285 3.00853
Spine1  3.86953 -0.139012 0.0513818
HEad  -7.80558 4.89962 -1.72762
LeftShoulder1  1.1041 -3.39006 -8.50716
LeftArm  -9.91834 8.28974 5.06173
LeftForeArm  10.9412 -2.23306 -4.62085
LeftHand  -0.244104 0.0205437 5.32207
RightShoulder  0.310316 -0.6747 2.91131
RightArm  -16.4623 -0.773646 -0.957745
RightForeArm  -3.67166 1.15726 4.70407
RightHand  -0.787711 2.14118 -12.3046
LeftUpLeg  2.9399 4.6733 2.43598
LeftLeg  2.00017 5.40636 -3.50579
LeftFoot  -4.43031 -0.196865 3.57735
LeftToes  5.72949e-011 -2.03295e-011 6.54899e-012
181
root  -30.8151 41.3511 38.3986 0.550799 -0.902634 -1.7013
RightUpLeg  -0.666481 -6.43785 -3.70477
RightLeg  3.05592 2.82199 2.93051
RightFoot  -0.571113 0.123559 -1.35214
RightToes  -5.8209e-011 0 -3.6325e-017
Spine  0.0758362 -0.0530145 3.14608
Spine1  3.9762 -0.0999921 -0.235737
HEad  -7.736 4.9396 -1.54845
LeftShoulder1  1.07294 -3.31767 -8.18413
LeftArm  -9.96118 8.23232 4.78267
LeftForeArm  11.2096 -2.37653 -4.62322
LeftHand  -0.244104 0.0205437 5.32207
RightShoulder  0.298935 -0.834952 3.1605
RightArm  -16.4532 -0.809195 -0.972587
RightForeArm  -3.85289 1.59347 4.7572
RightHand  -0.788429 2.05198 -12.4552
LeftUpLeg  2.90965 4.66218 2.42761
LeftLeg  1.9673 5.33234 -3.51227
LeftFoot  -4.44326 -0.193792 3.52949
LeftToes  5.72949e-011 -2.03295e-011 6.54899e-012
182
root  -30.8338 41.3512 38.3926 0.586963 -0.803745 -1.68735
RightUpLeg  -0.723708 -6.42962 -3.6915
RightLeg  3.10927 2.7123 2.9288
RightFoot  -0.646449 0.118224 -1.30539
RightToes  -5.8209e-011 0 -3.6325e-017
Spine  0.255948 -0.112343 3.30315
Spine1  3.77475 -0.0600773 -0.686754
HEad  -7.64196 4.90421 -1.10191
LeftShoulder1  1.02357 -3.22494 -7.60889
LeftArm  -9.96501 8.15196 4.35659
LeftForeArm  11.549 -2.35819 -4.62693
LeftHand  -0.244104 0.0205437 5.32207
RightShoulder  0.336623 -0.670739 3.92637
RightArm  -16.4174 -0.856362 -1.3931
RightForeArm  -3.8769 1.74335 4.77491
RightHand  -0.795879 2.10018 -12.4975
LeftUpLeg  2.84713 4.63016 2.4315
LeftLeg  1.97986 5.24882 -3.48094
LeftFoot  -4.45018 -0.189002 3.4549
LeftToes  5.72949e-011 -2.03295e-011 6.54899e-012
183
root  -30.8561 41.3516 38.3855 0.642444 -0.711336 -1.68913
RightUpLeg  -0.793859 -6.39179 -3.63972
RightLeg  3.13607 2.58061 2.91153
RightFoot  -0.702414 0.120226 -1.33651
RightToes  -5.8209e-011 0 -3.6325e-017
Spine  0.490189 -0.168563 3.27369
Spine1  3.41305 -0.0776397 -0.845834
HEad  -7.47015 4.70922 -0.81678
LeftShoulder1  1.013 -3.29345 -7.26496
LeftArm  -9.81434 8.23419 4.13215
LeftForeArm  11.8608 -2.26542 -4.65414
LeftHand  -0.244104 0.0205437 5.32207
RightShoulder  0.391578 -0.355581 4.56366
RightArm  -16.132 -0.835322 -1.83511
RightForeArm  -3.79955 1.66314 4.85449
RightHand  -0.7941 2.18839 -12.3627
LeftUpLeg  2.75365 4.62218 2.46594
LeftLeg  2.00931 5.14596 -3.46543
LeftFoot  -4.4471 -0.183197 3.36452
LeftToes  5.72949e-011 -2.03295e-011 6.54899e-012
184
root  -30.8795 41.3521 38.3797 0.725101 -0.668634 -1.68734
RightUpLeg  -0.891271 -6.36612 -3.5935
RightLeg  3.14782 2.50691 2.90762
RightFoot  -0.73507 0.121533 -1.35684
RightToes  -5.8209e-011 0 -3.6325e-017
Spine  0.60686 -0.191727 3.11601
Spine1  3.24949 -0.12181 -0.723706
HEad  -7.38571 4.64335 -0.823567
LeftShoulder1  1.03559 -3.43241 -7.29658
LeftArm  -9.64614 8.33217 4.14974
LeftForeArm  12.0751 -2.1369 -4.68441
LeftHand  -0.244104 0.0205437 5.32207
RightShoulder  0.424166 -0.151177 4.80769
RightArm  -15.7782 -0.716567 -1.99769
RightForeArm  -4.0288 1.59939 4.99267
RightHand  -0.793276 2.16544 -12.3501
LeftUpLeg  2.63928 4.63616 2.5054
LeftLeg  2.03548 5.07154 -3.47604
LeftFoot  -4.45168 -0.179704 3.31013
LeftToes  5.72949e-011 -2.03295e-011 6.54899e-012
185
root  -30.9008 41.3526 38.3777 0.814969 -0.647539 -1.66921
RightUpLeg  -0.990078 -6.3789 -3.58904
RightLeg  3.16036 2.48611 2.93267
RightFoot  -0.767728 0.116597 -1.2801
RightToes  -5.8209e-011 0 -3.6325e-017
Spine  0.566543 -0.175776 2.88779
Spine1  3.35983 -0.184865 -0.331802
HEad  -7.49011 4.83467 -1.1482
LeftShoulder1  1.08101 -3.49394 -7.87576
LeftArm  -9.5949 8.15458 4.46729
LeftForeArm  12.2433 -1.92991 -4.70896
LeftHand  -0.244104 0.0205437 5.32207
RightShoulder  0.410538 -0.174081 4.43699
RightArm  -15.7484 -0.633653 -1.63057
RightForeArm  -4.32711 1.64379 5.03393
RightHand  -0.804213 2.11664 -12.5948
LeftUpLeg  2.53337 4.63813 2.51788
LeftLeg  2.04342 5.03665 -3.48502
LeftFoot  -4.45709 -0.179119 3.30103
LeftToes  5.72949e-011 -2.03295e-011 6.54899e-012
186
root  -30.9204 41.3532 38.3778 0.889042 -0.622713 -1.64048
RightUpLeg  -1.07317 -6.40123 -3.60443
RightLeg  3.18761 2.47565 2.96095
RightFoot  -0.818624 0.109525 -1.17018
RightToes  -5.8209e-011 0 -3.6325e-017
Spine  0.491781 -0.13014 2.64686
Spine1  3.50447 -0.248975 0.199483
HEad  -7.66589 4.98489 -1.70254
LeftShoulder1  1.14352 -3.53565 -8.7621
LeftArm  -9.59724 7.84354 4.96972
LeftForeArm  12.4187 -1.75081 -4.73904
LeftHand  -0.244104 0.0205437 5.32207
RightShoulder  0.368363 -0.334108 3.63937
RightArm  -16.0614 -0.675492 -0.916519
RightForeArm  -4.01131 1.73159 4.91479
RightHand  -0.841616 2.32303 -12.8323
LeftUpLeg  2.45444 4.62498 2.51188
LeftLeg  2.03558 5.02158 -3.48487
LeftFoot  -4.45644 -0.178367 3.28933
LeftToes  5.72949e-011 -2.03295e-011 6.54899e-012
187
root  -30.9423 41.3538 38.379 0.943676 -0.609384 -1.6211
RightUpLeg  -1.14364 -6.39685 -3.5896
RightLeg  3.22089 2.45697 2.97085
RightFoot  -0.859231 0.109331 -1.16716
RightToes  -5.8209e-011 0 -3.6325e-017
Spine  0.469976 -0.088121 2.58031
Spine1  3.54538 -0.24261 0.374078
HEad  -7.79102 4.86792 -2.02992
LeftShoulder1  1.17877 -3.62052 -9.10049
LeftArm  -9.54148 7.82582 5.17249
LeftForeArm  12.5608 -1.84902 -4.77259
LeftHand  -0.244104 0.0205437 5.32207
RightShoulder  0.343379 -0.460358 3.25902
RightArm  -16.3625 -0.717671 -0.543207
RightForeArm  -3.24004 1.81929 4.77893
RightHand  -0.882969 2.7163 -12.8248
LeftUpLeg  2.39907 4.61985 2.52256
LeftLeg  2.02545 5.01765 -3.48323
LeftFoot  -4.44587 -0.175092 3.23834
LeftToes  5.72949e-011 -2.03295e-011 6.54899e-012
